<?xml version="1.0" encoding="UTF-8"?>
<svg id="Layer_1" data-name="Layer 1" xmlns="http://www.w3.org/2000/svg" viewBox="0 0 748.67 179.33">
  <defs>
    <style>
      .cls-1 {
        fill: #c4161c;
      }

      .cls-1, .cls-2 {
        fill-rule: evenodd;
      }

      .cls-2 {
        fill: #fff;
      }
    </style>
  </defs>
  <polygon class="cls-2" points="35.18 161.33 38.83 167.11 48.89 151.29 57.75 137.35 62.37 130.08 76.82 130.08 45.55 179.33 32.18 179.33 .91 130.08 15.39 130.08 22.19 140.87 35.18 161.33"/>
  <polygon class="cls-2" points="146.77 130.08 146.77 141.05 99.4 141.05 99.4 149.1 140.45 149.1 140.45 159.88 99.4 159.88 99.4 168.37 146.77 168.37 146.77 179.33 85.95 179.33 85.95 130.08 146.77 130.08"/>
  <path class="cls-2" d="m252.06,158.12h20.06l-9.99-15.81-10.06,15.81h0Zm16.71-28.04l31.27,49.25h-14.48l-6.79-10.79h-33.32l-6.87,10.79h-14.45l31.27-49.25h13.37Z"/>
  <polygon class="cls-2" points="322.33 168.37 343.57 168.37 343.57 179.33 308.89 179.33 308.89 130.08 322.33 130.08 322.33 141.05 322.33 162.17 322.33 168.37"/>
  <path class="cls-2" d="m441.92,129.99c4.39,0,8.12,1.4,11.17,4.19,3.08,2.79,4.61,6.17,4.58,10.13v3.15h-13.39v-.82c0-1.65-.61-3.01-1.83-4.08-1.19-1.17-2.69-1.72-4.48-1.65h-29.4c-1.72-.02-3.21.54-4.48,1.68-1.22,1.05-1.83,2.4-1.83,4.05v15.75c0,1.58.62,2.94,1.86,4.08,1.24,1.07,2.72,1.62,4.44,1.65h29.4c1.79-.07,3.28-.63,4.48-1.68,1.18-1.11,1.79-2.41,1.82-3.91h-18.06v-9.12h31.45v11.3c.02,3.96-1.5,7.34-4.58,10.13-3.05,2.79-6.78,4.19-11.17,4.19h-37.27c-4.37,0-8.09-1.4-11.17-4.19-3.06-2.79-4.58-6.17-4.58-10.13v-20.41c0-3.96,1.54-7.34,4.62-10.13,3.08-2.79,6.79-4.19,11.13-4.19h37.27Z"/>
  <path class="cls-2" d="m494.6,157.92h19.98l-9.95-15.75-10.02,15.75h0Zm16.65-27.93l31.15,49.05h-14.43l-6.77-10.74h-33.19l-6.84,10.74h-14.39l31.15-49.05h13.32Z"/>
  <polygon class="cls-2" points="632.72 150.44 668 150.46 668 129.99 681.39 129.99 681.39 179.04 668 179.04 668 161.25 632.72 161.25 632.72 179.04 619.32 179.04 619.32 129.99 632.72 129.99 632.72 140.91 632.72 145.67 632.72 150.44"/>
  <path class="cls-2" d="m177.11,149.27c-1.58,0-2.84-.42-3.77-1.27-1.01-.87-1.5-1.95-1.47-3.22-.02-1.34.47-2.42,1.47-3.22.93-.89,2.19-1.31,3.77-1.24h40.33v-10.23h-41.63c-4.77,0-8.84,1.43-12.22,4.29-3.38,2.86-5.07,6.32-5.07,10.36,0,3.74,1.46,6.98,4.38,9.73,6.16,5.66,12.21,4.9,19.66,4.9l16.58.08c1.58,0,2.84.42,3.77,1.27,1.01.87,1.5,1.95,1.47,3.22.02,1.34-.47,2.42-1.47,3.22-.93.89-2.19,1.31-3.77,1.24h-40.57v10.23h41.87c4.77,0,8.84-1.43,12.22-4.29,3.38-2.86,5.07-6.32,5.07-10.36,0-3.74-1.46-6.98-4.38-9.73-5.23-4.8-9.95-4.9-16.06-4.9l-20.18-.08Z"/>
  <polygon class="cls-2" points="725.89 140.91 746.81 140.91 746.81 129.99 712.5 129.99 690.5 129.99 690.5 140.91 712.5 140.91 712.5 179.04 725.89 179.04 725.89 168.12 725.89 147.08 725.89 140.91"/>
  <path class="cls-1" d="m426.63,26.2c-11.23-2.3-22.24-4.17-33.22-5.58l-.19-.03h0c-62.91-8.07-124.66-1.26-218.14,24-40.67,10.99-78.1,21.97-115.07,26.03h-.02c-1.59.27-4.83.55-8.84.84-2.92.23-5.83.41-8.75.55-7.53.43-15.58.8-20.42,1.01-11.62.57-9.34,27.22-9.34,34.33,0,1.76-1.44,3.2-3.2,3.2h-5.21c-1.76,0-3.2-1.44-3.2-3.2C1.04,94.03-.11,81.19,0,67.94c0,0-.32-5.93,4.45-6.84l.06-.02c35.55-6.44,63.02-13.41,101.77-27.38,10.88-3.93,21.64-7.41,32.27-10.53t.06,0C201.11,4.91,258.5,0,303.29,0c33.5,0,71.96,4.4,110.68,12.29.43.12,1.4.32,2.98.61,2.25.47,4.5.95,6.75,1.44,37.05,8.86,114.46,40.17,90.45,31.04-15.64-5.95-57.45-13.91-87.53-19.18Z"/>
  <path class="cls-2" d="m725.42,63.13c-.05.01.42.11,1.52.31,2.46.5,4.82,1.02,7.04,1.55,21.63,6.61,12.97,31.55,12.97,52.15,0,1.76-1.44,3.2-3.2,3.2h-5.21c-1.76,0-3.2-1.44-3.2-3.2,0-9.1.94-22.14-3.32-30.51h0c-15.2-33.04-428.15,73.29-451.06-56.61,63.67,98.98,365,17.5,444.45,33.11Z"/>
  <path class="cls-2" d="m570.08,149.08c-1.58,0-2.84-.42-3.77-1.27-1.01-.87-1.5-1.95-1.47-3.22-.02-1.34.47-2.42,1.47-3.22.93-.89,2.19-1.31,3.77-1.24h40.33v-10.23h-41.63c-4.77,0-8.84,1.43-12.22,4.29-3.38,2.86-5.07,6.32-5.07,10.36,0,3.74,1.46,6.98,4.38,9.73,6.16,5.66,12.21,4.9,19.66,4.9l16.58.08c1.58,0,2.84.42,3.77,1.27,1.01.87,1.5,1.95,1.47,3.22.02,1.34-.47,2.42-1.47,3.22-.93.89-2.19,1.31-3.77,1.24h-40.57v10.23h41.87c4.77,0,8.84-1.43,12.22-4.29,3.38-2.86,5.07-6.32,5.07-10.36,0-3.74-1.46-6.98-4.38-9.73-5.23-4.8-9.95-4.9-16.06-4.9l-20.18-.08Z"/>
</svg>