<svg width="16" height="18" viewBox="0 0 16 18" fill="none" xmlns="http://www.w3.org/2000/svg">
<path d="M8 9.83325C9.38071 9.83325 10.5 8.71396 10.5 7.33325C10.5 5.95254 9.38071 4.83325 8 4.83325C6.61929 4.83325 5.5 5.95254 5.5 7.33325C5.5 8.71396 6.61929 9.83325 8 9.83325Z" stroke="#414042" stroke-linecap="round" stroke-linejoin="round"/>
<path d="M7.99992 0.666626C6.23181 0.666626 4.53612 1.36901 3.28587 2.61925C2.03563 3.86949 1.33325 5.56518 1.33325 7.33329C1.33325 8.90996 1.66825 9.94163 2.58325 11.0833L7.99992 17.3333L13.4166 11.0833C14.3316 9.94163 14.6666 8.90996 14.6666 7.33329C14.6666 5.56518 13.9642 3.86949 12.714 2.61925C11.4637 1.36901 9.76803 0.666626 7.99992 0.666626V0.666626Z" stroke="#414042" stroke-linecap="round" stroke-linejoin="round"/>
</svg>
