<svg width="23" height="22" viewBox="0 0 23 22" fill="none" xmlns="http://www.w3.org/2000/svg">
<path d="M2.1768 0.256348H9.34346V7.42301H7.91013V2.39631C5.92449 3.22724 4.2877 4.71989 3.27775 6.62073C2.26781 8.52158 1.94698 10.7134 2.36977 12.824C2.79255 14.9345 3.93288 16.8337 5.59708 18.1988C7.26127 19.564 9.34671 20.311 11.4992 20.313C13.7848 20.3152 15.9915 19.4772 17.6995 17.9584C19.4074 16.4395 20.4975 14.3458 20.7623 12.0756C21.027 9.80537 20.448 7.51702 19.1354 5.6459C17.8229 3.77477 15.8682 2.45142 13.6435 1.92761V0.459881C16.1078 0.961309 18.3183 2.31082 19.8904 4.27361C21.4625 6.2364 22.2968 8.68825 22.248 11.2026C22.1992 13.7169 21.2705 16.1345 19.6234 18.0348C17.9763 19.9352 15.7151 21.1979 13.2332 21.6034C10.7513 22.0088 8.20584 21.5313 6.03962 20.254C3.87341 18.9766 2.22358 16.9802 1.37717 14.6122C0.530771 12.2441 0.54137 9.65422 1.40713 7.29315C2.27288 4.93209 3.939 2.94927 6.1156 1.68968H2.1768V0.256348Z" fill="white"/>
</svg>
